<svg width="29" height="29" viewBox="0 0 29 29" fill="none" xmlns="http://www.w3.org/2000/svg">
<path d="M4.24023 9.19707C4.24023 8.08316 4.68273 7.01488 5.47039 6.22722C6.25804 5.43957 7.32633 4.99707 8.44024 4.99707H19.6402C20.7541 4.99707 21.8224 5.43957 22.6101 6.22722C23.3977 7.01488 23.8402 8.08316 23.8402 9.19707V20.3971C23.8402 21.511 23.3977 22.5793 22.6101 23.3669C21.8224 24.1546 20.7541 24.5971 19.6402 24.5971H8.44024C7.32633 24.5971 6.25804 24.1546 5.47039 23.3669C4.68273 22.5793 4.24023 21.511 4.24023 20.3971V9.19707ZM9.14024 9.19707C8.95458 9.19707 8.77654 9.27082 8.64526 9.4021C8.51399 9.53337 8.44024 9.71142 8.44024 9.89707C8.44024 10.0827 8.51399 10.2608 8.64526 10.392C8.77654 10.5233 8.95458 10.5971 9.14024 10.5971H18.9402C19.1259 10.5971 19.3039 10.5233 19.4352 10.392C19.5665 10.2608 19.6402 10.0827 19.6402 9.89707C19.6402 9.71142 19.5665 9.53337 19.4352 9.4021C19.3039 9.27082 19.1259 9.19707 18.9402 9.19707H9.14024Z" fill="#1643C3"/>
</svg>
