<svg width="29" height="29" viewBox="0 0 29 29" fill="none" xmlns="http://www.w3.org/2000/svg">
<path d="M4.24023 9.19683C4.24023 8.08292 4.68273 7.01463 5.47039 6.22698C6.25804 5.43933 7.32633 4.99683 8.44024 4.99683H19.6402C20.7541 4.99683 21.8224 5.43933 22.6101 6.22698C23.3977 7.01463 23.8402 8.08292 23.8402 9.19683V20.3968C23.8402 21.5107 23.3977 22.579 22.6101 23.3667C21.8224 24.1543 20.7541 24.5968 19.6402 24.5968H8.44024C7.32633 24.5968 6.25804 24.1543 5.47039 23.3667C4.68273 22.579 4.24023 21.5107 4.24023 20.3968V9.19683ZM9.14024 9.19683C8.95458 9.19683 8.77654 9.27058 8.64526 9.40185C8.51399 9.53313 8.44024 9.71118 8.44024 9.89683C8.44024 10.0825 8.51399 10.2605 8.64526 10.3918C8.77654 10.5231 8.95458 10.5968 9.14024 10.5968H18.9402C19.1259 10.5968 19.3039 10.5231 19.4352 10.3918C19.5665 10.2605 19.6402 10.0825 19.6402 9.89683C19.6402 9.71118 19.5665 9.53313 19.4352 9.40185C19.3039 9.27058 19.1259 9.19683 18.9402 9.19683H9.14024Z" fill="#1643C3"/>
</svg>
