<svg width="28" height="29" viewBox="0 0 28 29" fill="none" xmlns="http://www.w3.org/2000/svg">
<path d="M15.4445 19.6309C16.4402 19.6309 17.3951 19.2354 18.0991 18.5313C18.8032 17.8273 19.1987 16.8724 19.1987 15.8767V6.63561C19.1987 5.63993 18.8032 4.68504 18.0991 3.98099C17.3951 3.27694 16.4402 2.88141 15.4445 2.88141H6.20342C5.20774 2.88141 4.25285 3.27694 3.5488 3.98099C2.84475 4.68504 2.44922 5.63993 2.44922 6.63561V15.8767C2.44922 16.8724 2.84475 17.8273 3.5488 18.5313C4.25285 19.2354 5.20774 19.6309 6.20342 19.6309H15.4445ZM8.80248 20.7861H10.5352V22.23C10.5352 23.3458 11.4408 24.2515 12.5567 24.2515H21.7978C22.3339 24.2515 22.8481 24.0385 23.2272 23.6594C23.6063 23.2803 23.8193 22.7661 23.8193 22.23V12.9889C23.8193 12.4527 23.6063 11.9386 23.2272 11.5595C22.8481 11.1804 22.3339 10.9674 21.7978 10.9674H20.3539V9.23467H21.7978C22.2908 9.23467 22.779 9.33178 23.2345 9.52044C23.6899 9.70911 24.1038 9.98564 24.4524 10.3343C24.801 10.6829 25.0776 11.0967 25.2662 11.5522C25.4549 12.0077 25.552 12.4959 25.552 12.9889V22.23C25.552 22.723 25.4549 23.2112 25.2662 23.6667C25.0776 24.1221 24.801 24.536 24.4524 24.8846C24.1038 25.2332 23.6899 25.5097 23.2345 25.6984C22.779 25.8871 22.2908 25.9842 21.7978 25.9842H12.5567C12.0637 25.9842 11.5755 25.8871 11.12 25.6984C10.6645 25.5097 10.2507 25.2332 9.90206 24.8846C9.55345 24.536 9.27692 24.1221 9.08825 23.6667C8.89959 23.2112 8.80248 22.723 8.80248 22.23V20.7861Z" fill="#1643C3"/>
</svg>
